<?xml version="1.0" encoding="UTF-8" standalone="no"?>
<!-- Created with Inkscape (http://www.inkscape.org/) -->

<svg
   width="260mm"
   height="260mm"
   viewBox="0 0 260 260"
   version="1.1"
   id="svg5"
   xml:space="preserve"
   inkscape:version="1.3.2 (091e20ef0f, 2023-11-25)"
   sodipodi:docname="favicon.svg"
   inkscape:export-filename="favicon.png"
   inkscape:export-xdpi="96"
   inkscape:export-ydpi="96"
   xmlns:inkscape="http://www.inkscape.org/namespaces/inkscape"
   xmlns:sodipodi="http://sodipodi.sourceforge.net/DTD/sodipodi-0.dtd"
   xmlns="http://www.w3.org/2000/svg"
   xmlns:svg="http://www.w3.org/2000/svg"><sodipodi:namedview
     id="namedview7"
     pagecolor="#ffffff"
     bordercolor="#303030"
     borderopacity="1"
     inkscape:showpageshadow="2"
     inkscape:pageopacity="0.0"
     inkscape:pagecheckerboard="0"
     inkscape:deskcolor="#ffffff"
     inkscape:document-units="mm"
     showgrid="false"
     showborder="true"
     inkscape:zoom="0.22627417"
     inkscape:cx="430.8932"
     inkscape:cy="863.9961"
     inkscape:window-width="2476"
     inkscape:window-height="1371"
     inkscape:window-x="0"
     inkscape:window-y="0"
     inkscape:window-maximized="1"
     inkscape:current-layer="layer1" /><defs
     id="defs2"><inkscape:path-effect
       effect="construct_grid"
       id="path-effect1525"
       is_visible="true"
       lpeversion="1"
       nr_x="5"
       nr_y="5" /><inkscape:path-effect
       effect="spiro"
       id="path-effect1521"
       is_visible="true"
       lpeversion="1" /><inkscape:path-effect
       effect="bend_path"
       id="path-effect1465"
       is_visible="true"
       lpeversion="1"
       bendpath="m 70.133601,154.92801 c 64.296509,36.47888 128.247089,-9.61605 163.762359,16.23781 29.89161,21.76004 92.61917,31.368 127.87741,21.57681"
       prop_scale="0.7098181"
       scale_y_rel="false"
       vertical="false"
       hide_knot="false"
       bendpath-nodetypes="csc" /><inkscape:path-effect
       effect="powerclip"
       id="path-effect1407"
       is_visible="true"
       lpeversion="1"
       inverse="true"
       flatten="false"
       hide_clip="false"
       message="Use fill-rule evenodd on &lt;b&gt;fill and stroke&lt;/b&gt; dialog if no flatten result after convert clip to paths." /><inkscape:path-effect
       effect="bspline"
       id="path-effect1133"
       is_visible="true"
       lpeversion="1"
       weight="30.1333"
       steps="2"
       helper_size="0"
       apply_no_weight="true"
       apply_with_weight="true"
       only_selected="false"
       uniform="false" /><inkscape:path-effect
       effect="spiro"
       id="path-effect1095"
       is_visible="true"
       lpeversion="1" /><inkscape:path-effect
       effect="bspline"
       id="path-effect1042"
       is_visible="true"
       lpeversion="1"
       weight="30.1333"
       steps="2"
       helper_size="0"
       apply_no_weight="true"
       apply_with_weight="true"
       only_selected="false"
       uniform="false" /><clipPath
       clipPathUnits="userSpaceOnUse"
       id="clipPath1403"><ellipse
         style="display:none;fill:#00ff00;stroke:none;stroke-width:2.25"
         id="ellipse1405"
         cx="-103.9031"
         cy="79.276825"
         rx="36.033665"
         ry="14.575384" /></clipPath></defs><g
     inkscape:label="Layer 1"
     inkscape:groupmode="layer"
     id="layer1"
     transform="translate(168.70659,-98.613262)"><path
       id="path3"
       style="color:#000000;fill:#73baae;fill-opacity:1;-inkscape-stroke:none"
       d="m -38.706588,112.72651 c -23.543634,1.3e-4 -43.213235,17.0972 -56.45702,41.28688 -9.058332,16.54495 -15.545902,36.87585 -18.744602,59.44236 -7.76717,0.004 -21.2857,-0.003 -23.00531,0.0109 -1.08399,0.009 -1.94859,0.50098 -2.64842,1.44539 -0.69983,0.9444 -1.22188,2.34506 -1.57044,4.13463 -0.69714,3.57913 -0.70321,8.70907 -0.16795,14.86369 1.07052,12.30926 4.30559,28.71954 8.46873,45.12283 4.16313,16.40329 9.25327,32.80102 14.03119,45.08768 2.38895,6.14334 4.70114,11.2594 6.77529,14.83011 1.03707,1.78534 2.01538,3.18422 2.90835,4.12894 0.89297,0.94472 1.69693,1.42407 2.36523,1.42007 10.407352,-0.0681 52.171086,-0.0225 64.019358,-0.008 h 0.130741 v 0.008 c 0.217469,0 3.449522,-0.003 3.894853,-0.004 0.44579,10e-4 3.673969,0.004 3.894336,0.004 v -0.008 h 0.130741 c 11.848396,-0.0138 53.612551,-0.0593 64.019865,0.008 0.668294,0.004 1.47226,-0.47535 2.36523,-1.42007 0.89297,-0.94472 1.871275,-2.3436 2.90835,-4.12894 2.074149,-3.57071 4.386341,-8.68677 6.775297,-14.83011 4.777912,-12.28666 9.868054,-28.68439 14.031185,-45.08768 4.163131,-16.40329 7.398217,-32.81357 8.468734,-45.12283 0.535258,-6.15462 0.529185,-11.28456 -0.167949,-14.86369 -0.348566,-1.78957 -0.870615,-3.19023 -1.570447,-4.13463 -0.699831,-0.94441 -1.564429,-1.43639 -2.648417,-1.44539 -1.817077,-0.0149 -14.853748,0.003 -23.003764,-5.2e-4 -3.198161,-22.57071 -9.686341,-42.90521 -18.746142,-59.45274 -13.2439121,-24.18971 -32.91326,-41.28708 -56.457019,-41.28688 z m 0,19.81429 c 13.764102,-1.1e-4 27.871112,10.5225 39.07616792,30.98829 7.31435798,13.3595 12.96896308,30.55036 16.02641208,49.93648 -25.1466248,0.005 -51.034796,-0.004 -55.10258,-0.001 -3.466581,-0.002 -21.561474,-0.0153 -44.051055,-0.0233 h -0.13281 c -4.94827,-0.002 -6.07053,0.006 -10.91561,0.005 3.05818,-19.37829 8.71141,-36.56225 16.02331,-49.91736 11.20496,-20.46578 25.312139,-30.98821 39.076165,-30.98829 z m -44.006095,80.67983 -0.17777,0.0879 0.0667,0.0667 0.13281,-0.13281 z" /></g></svg>
